<?xml version="1.0" encoding="UTF-8" standalone="no"?>
<!-- Created with Inkscape (http://www.inkscape.org/) -->

<svg
   width="181.16905mm"
   height="109.01698mm"
   viewBox="0 0 181.16905 109.01698"
   version="1.1"
   id="svg1"
   xml:space="preserve"
   xmlns:inkscape="http://www.inkscape.org/namespaces/inkscape"
   xmlns:sodipodi="http://sodipodi.sourceforge.net/DTD/sodipodi-0.dtd"
   xmlns="http://www.w3.org/2000/svg"
   xmlns:svg="http://www.w3.org/2000/svg"><sodipodi:namedview
     id="namedview1"
     pagecolor="#ffffff"
     bordercolor="#000000"
     borderopacity="0.25"
     inkscape:showpageshadow="2"
     inkscape:pageopacity="0.0"
     inkscape:pagecheckerboard="0"
     inkscape:deskcolor="#d1d1d1"
     inkscape:document-units="mm"
     showguides="false" /><defs
     id="defs1"><rect
       x="65.535477"
       y="368.82755"
       width="271.93539"
       height="57.856266"
       id="rect4" /><rect
       x="65.535477"
       y="368.82755"
       width="679.18317"
       height="66.524803"
       id="rect4-7" /><rect
       x="65.535477"
       y="368.82755"
       width="132.46907"
       height="62.852024"
       id="rect4-7-46" /><rect
       x="65.535477"
       y="368.82755"
       width="286.90756"
       height="60.218941"
       id="rect4-7-2" /><rect
       x="65.535477"
       y="368.82755"
       width="132.46907"
       height="62.852024"
       id="rect4-7-46-9" /></defs><g
     inkscape:label="Layer 1"
     inkscape:groupmode="layer"
     id="layer1"
     transform="translate(-14.41547,-93.991506)"><rect
       style="fill:#343541;fill-opacity:1;stroke:#1aff0e;stroke-width:2.1359;stroke-linejoin:round;stroke-dasharray:none;stroke-opacity:1;paint-order:markers stroke fill"
       id="rect1"
       width="179.03316"
       height="106.88109"
       x="15.483419"
       y="95.059456"
       ry="5.2043552"
       inkscape:export-filename="rect1.svg"
       inkscape:export-xdpi="96"
       inkscape:export-ydpi="96" /><rect
       style="fill:#000000;fill-opacity:1;stroke:none;stroke-width:1.33331;stroke-linejoin:round;stroke-dasharray:none;stroke-opacity:1;paint-order:markers stroke fill"
       id="rect2"
       width="179.03316"
       height="15.088531"
       x="15.483419"
       y="94.894005"
       ry="5.6903577" /><rect
       style="fill:#000000;fill-opacity:1;stroke:none;stroke-width:1.80334;stroke-linejoin:round;stroke-dasharray:none;stroke-opacity:1;paint-order:markers stroke fill"
       id="rect3"
       width="179.03316"
       height="12.51286"
       x="15.483419"
       y="102.43827"
       ry="0" /><text
       xml:space="preserve"
       transform="matrix(0.26458333,0,0,0.26458333,-0.2281106,1.1215742)"
       id="text3"
       style="font-weight:500;font-size:53.3333px;line-height:1;font-family:Rubik;-inkscape-font-specification:'Rubik Medium';text-align:center;letter-spacing:-4.15px;word-spacing:4px;white-space:pre;shape-inside:url(#rect4);fill:#1aff0e;fill-opacity:1;stroke:none;stroke-width:6.82205;stroke-linejoin:round;stroke-dasharray:none;stroke-opacity:1;paint-order:markers stroke fill"><tspan
         x="82.15545"
         y="410.90968"
         id="tspan9"><tspan
           dx="0 0 0 -3.9999976 3.9999976"
           style="fill:#ffffff"
           id="tspan8">PM2 APPS</tspan></tspan></text><text
       xml:space="preserve"
       transform="matrix(0.08816293,0,0,0.08816293,0.44134833,84.897513)"
       id="text3-1"
       style="font-weight:500;font-size:53.3333px;line-height:1;font-family:Rubik;-inkscape-font-specification:'Rubik Medium';text-align:center;letter-spacing:-4.15px;word-spacing:4px;white-space:pre;shape-inside:url(#rect4-7);fill:#1aff0e;fill-opacity:1;stroke:none;stroke-width:6.82205;stroke-linejoin:round;stroke-dasharray:none;stroke-opacity:1;paint-order:markers stroke fill"><tspan
         x="237.0921"
         y="410.90968"
         id="tspan11"><tspan
           dx="0 0 0 0 0 0 -4.0000072 4.0000081 0 0 0 0 -4.0000052"
           style="fill:#ffffff"
           id="tspan10">Memory Usage </tspan></tspan></text><g
       id="g5"
       transform="matrix(1.3414073,0,0,1.3414073,-67.173962,-35.821331)"><circle
         style="fill:#ff4343;fill-opacity:1;stroke:none;stroke-width:1.05676;stroke-linejoin:round;stroke-dasharray:none;stroke-opacity:1;paint-order:markers stroke fill"
         id="path4"
         cx="186.39977"
         cy="104.92257"
         r="3.7721324" /><rect
         style="fill:#fff6f6;fill-opacity:1;stroke:none;stroke-width:1.805;stroke-linejoin:round;stroke-dasharray:none;stroke-opacity:1;paint-order:markers stroke fill"
         id="rect5"
         width="0.64519417"
         height="3.5147157"
         x="205.6734"
         y="-59.370434"
         ry="0.32259709"
         transform="rotate(45)" /><rect
         style="fill:#fff6f6;fill-opacity:1;stroke:none;stroke-width:1.805;stroke-linejoin:round;stroke-dasharray:none;stroke-opacity:1;paint-order:markers stroke fill"
         id="rect5-4"
         width="0.64519417"
         height="3.5147157"
         x="57.290478"
         y="204.23865"
         ry="0.32259709"
         transform="rotate(-45)" /></g><rect
       style="fill:#1aff0e;fill-opacity:1;stroke:none;stroke-width:1.16689;stroke-linejoin:round;stroke-dasharray:none;stroke-opacity:1;paint-order:markers stroke fill"
       id="rect6"
       width="67.350212"
       height="13.002304"
       x="21.71084"
       y="122.7235"
       ry="0.32259709" /><rect
       style="fill:#000000;fill-opacity:1;stroke:none;stroke-width:1.27274;stroke-linejoin:round;stroke-dasharray:none;stroke-opacity:1;paint-order:markers stroke fill"
       id="rect6-2"
       width="80.124405"
       height="13.002304"
       x="89.06105"
       y="122.7235"
       ry="0.32259709" /><text
       xml:space="preserve"
       transform="matrix(0.16462826,0,0,0.16462826,159.36387,64.65915)"
       id="text3-1-7"
       style="font-weight:500;font-size:53.3333px;line-height:1;font-family:Rubik;-inkscape-font-specification:'Rubik Medium';text-align:center;letter-spacing:-4.15px;word-spacing:4px;white-space:pre;shape-inside:url(#rect4-7-46);fill:#1aff0e;fill-opacity:1;stroke:none;stroke-width:6.82205;stroke-linejoin:round;stroke-dasharray:none;stroke-opacity:1;paint-order:markers stroke fill"><tspan
         x="81.786212"
         y="410.90968"
         id="tspan13"><tspan
           dx="0 0 0 -4.0000014"
           style="fill:#ffffff"
           id="tspan12">26% </tspan></tspan></text><text
       xml:space="preserve"
       transform="matrix(0.08816293,0,0,0.08816293,14.188611,106.80864)"
       id="text3-1-4"
       style="font-weight:500;font-size:53.3333px;line-height:1;font-family:Rubik;-inkscape-font-specification:'Rubik Medium';text-align:center;letter-spacing:-4.15px;word-spacing:4px;white-space:pre;shape-inside:url(#rect4-7-2);fill:#1aff0e;fill-opacity:1;stroke:none;stroke-width:6.82205;stroke-linejoin:round;stroke-dasharray:none;stroke-opacity:1;paint-order:markers stroke fill"><tspan
         x="82.495236"
         y="410.90968"
         id="tspan15"><tspan
           dx="0 0 0 -4.0000014 4.0000005 0 0 0 0 -4.0000052"
           style="fill:#ffffff"
           id="tspan14">CPU Usage </tspan></tspan></text><rect
       style="fill:#1aff0e;fill-opacity:1;stroke:none;stroke-width:0.629583;stroke-linejoin:round;stroke-dasharray:none;stroke-opacity:1;paint-order:markers stroke fill"
       id="rect6-0"
       width="19.605841"
       height="13.002304"
       x="21.71084"
       y="144.64037"
       ry="0.32259709" /><rect
       style="fill:#000000;fill-opacity:1;stroke:none;stroke-width:1.60783;stroke-linejoin:round;stroke-dasharray:none;stroke-opacity:1;paint-order:markers stroke fill"
       id="rect6-2-4"
       width="127.86877"
       height="13.002304"
       x="41.316681"
       y="144.64037"
       ry="0.32259709" /><text
       xml:space="preserve"
       transform="matrix(0.16462826,0,0,0.16462826,159.36387,86.576008)"
       id="text3-1-7-1"
       style="font-weight:500;font-size:53.3333px;line-height:1;font-family:Rubik;-inkscape-font-specification:'Rubik Medium';text-align:center;letter-spacing:-4.15px;word-spacing:4px;white-space:pre;shape-inside:url(#rect4-7-46-9);fill:#1aff0e;fill-opacity:1;stroke:none;stroke-width:6.82205;stroke-linejoin:round;stroke-dasharray:none;stroke-opacity:1;paint-order:markers stroke fill"><tspan
         x="96.217855"
         y="410.90968"
         id="tspan17"><tspan
           dx="0 0 -4.0000052"
           style="fill:#ffffff"
           id="tspan16">6% </tspan></tspan></text><rect
       style="fill:#191919;fill-opacity:1;stroke:none;stroke-width:1.90985;stroke-linejoin:round;stroke-dasharray:none;stroke-opacity:1;paint-order:markers stroke fill"
       id="rect7"
       width="174.75407"
       height="36.560783"
       x="17.874029"
       y="162.6611"
       ry="6.4815874" /><path
       d="m 33.86552,175.15358 c 2.980418,-3.19276 7.796042,-3.20816 10.795626,-0.0513 l -1.974168,2.10968 c -0.330624,0.35418 -0.426458,0.88288 -0.249166,1.34485 0.177292,0.46198 0.598958,0.75969 1.06375,0.75969 h 5.72604 c 0,0 0,0 0,0 h 0.407292 c 0.637291,0 1.15,-0.54923 1.15,-1.23193 v -6.57029 c 0,-0.49791 -0.277916,-0.94961 -0.709166,-1.13953 -0.431251,-0.18993 -0.924792,-0.0873 -1.255416,0.26692 l -1.993334,2.13534 c -4.1975,-4.44008 -10.95854,-4.42468 -15.132083,0.0513 -1.169167,1.25246 -2.0125,2.72565 -2.53,4.3015 -0.282708,0.85721 0.138958,1.79142 0.934375,2.09427 0.795417,0.30285 1.672292,-0.14886 1.955,-1.00094 0.368958,-1.119 0.967916,-2.17127 1.81125,-3.06956 z m -6.080625,8.67997 v 0.39011 0.036 6.14425 c 0,0.4979 0.277917,0.94962 0.709166,1.13954 0.43125,0.18992 0.924792,0.0873 1.255418,-0.26692 l 1.993332,-2.13533 c 4.197501,4.44008 10.958543,4.42466 15.132082,-0.0513 1.169169,-1.25246 2.017293,-2.72565 2.534793,-4.29636 0.282708,-0.85722 -0.138958,-1.79143 -0.934374,-2.09428 -0.795418,-0.30285 -1.672292,0.14885 -1.955001,1.00094 -0.368959,1.119 -0.967918,2.17128 -1.811249,3.06956 -2.980417,3.19275 -7.796043,3.20814 -10.795625,0.0513 l 1.969375,-2.11482 c 0.330625,-0.35418 0.426458,-0.88288 0.249166,-1.34486 -0.177291,-0.46197 -0.598958,-0.75969 -1.06375,-0.75969 h -5.730833 -0.03354 -0.368959 c -0.637291,0 -1.149999,0.54924 -1.149999,1.23194 z"
       id="path1"
       style="fill:#ffdb0b;fill-opacity:1;stroke-width:0.0495941" /><path
       d="m 72.197832,192.45909 a 11.5,11.5 0 1 0 0,-23 11.5,11.5 0 1 0 0,23 z m -2.875,-15.8125 h 5.75001 c 0.79511,0 1.4375,0.64238 1.4375,1.43749 v 5.75002 c 0,0.79509 -0.64239,1.43748 -1.4375,1.43748 h -5.75001 c -0.795112,0 -1.437493,-0.64239 -1.437493,-1.43749 v -5.75002 c 0,-0.7951 0.642381,-1.43749 1.437493,-1.43748 z"
       id="path1-5"
       style="fill:#e82121;fill-opacity:1;stroke-width:0.0449217" /><path
       d="m 107.03195,169.55342 c 0.38633,0.17071 0.63789,0.55703 0.63789,0.98379 v 1.79689 h 0.71875 c 3.17598,0 5.75,2.57401 5.75,5.74999 v 7.48848 c 1.27129,0.55253 2.15625,1.81933 2.15625,3.29277 0,1.98555 -1.6082,3.59375 -3.59375,3.59375 -1.98554,0 -3.59374,-1.6082 -3.59374,-3.59375 0,-1.47344 0.88496,-2.74024 2.15624,-3.29277 v -7.48848 c 0,-1.58575 -1.28925,-2.875 -2.875,-2.875 h -0.71875 v 1.79687 c 0,0.42676 -0.25156,0.81309 -0.63789,0.9838 -0.38632,0.17069 -0.84453,0.10332 -1.15898,-0.18419 l -3.59375,-3.23437 c -0.2291,-0.20663 -0.35488,-0.49415 -0.35488,-0.7996 0,-0.30548 0.13027,-0.59747 0.35488,-0.79962 l 3.59375,-3.23437 c 0.31445,-0.28301 0.77266,-0.35489 1.15898,-0.18419 z m -9.065227,3.49942 a 1.0781253,1.0781255 0 1 0 -2.15625,0 1.0781253,1.0781255 0 1 0 2.15625,0 z m 0.35938,3.29278 v 9.22695 c 1.271276,0.55253 2.156247,1.81933 2.156247,3.29277 0,1.98555 -1.608207,3.59375 -3.593753,3.59375 -1.985546,0 -3.59375,-1.6082 -3.59375,-3.59375 0,-1.47344 0.88496,-2.74024 2.15625,-3.29277 v -9.22695 c -1.27129,-0.55255 -2.15625,-1.81934 -2.15625,-3.29278 0,-1.98555 1.608204,-3.59375 3.59375,-3.59375 1.985546,0 3.593753,1.6082 3.593753,3.59375 0,1.47344 -0.884971,2.74023 -2.156247,3.29278 z m -0.35938,12.51972 a 1.0781253,1.0781255 0 1 0 -2.15625,0 1.0781253,1.0781255 0 1 0 2.15625,0 z m 14.734367,1.07812 a 1.0781265,1.0781267 0 1 0 0,-2.15625 1.0781265,1.0781267 0 1 0 0,2.15625 z"
       id="path1-2"
       style="fill:#049dff;fill-opacity:1;stroke-width:0.0449216" /><path
       d="m 138.86775,169.51541 c -0.61098,-0.22007 -1.24712,0.22457 -1.42323,0.98808 l -4.60036,20.12074 c -0.17611,0.76351 0.1797,1.55846 0.79069,1.77853 0.61098,0.22007 1.24713,-0.22456 1.42323,-0.98807 l 4.60036,-20.12075 c 0.17611,-0.7635 -0.1797,-1.55845 -0.79069,-1.77853 z m 2.89679,5.39398 c -0.44925,0.56141 -0.44925,1.47313 0,2.03453 l 3.20947,4.01517 -3.21306,4.01517 c -0.44925,0.5614 -0.44925,1.47312 0,2.03453 0.44925,0.5614 1.17884,0.5614 1.6281,0 l 4.02531,-5.03019 c 0.44925,-0.5614 0.44925,-1.47313 0,-2.03453 l -4.02531,-5.03019 c -0.44926,-0.5614 -1.17885,-0.5614 -1.6281,0 z m -11.02289,0 c -0.44925,-0.5614 -1.17884,-0.5614 -1.62809,0 l -4.02532,5.03019 c -0.44925,0.5614 -0.44925,1.47312 0,2.03453 l 4.02532,5.03019 c 0.44925,0.5614 1.17884,0.5614 1.62809,0 0.44926,-0.56141 0.44926,-1.47313 0,-2.03453 l -3.21306,-4.01068 3.21306,-4.01517 c 0.44926,-0.5614 0.44926,-1.47312 0,-2.03453 z"
       id="path1-6"
       style="fill:#ffffff;fill-opacity:1;stroke-width:0.0401766" /></g></svg>
