<?xml version="1.0" encoding="UTF-8" standalone="no"?>
<!-- Created with Inkscape (http://www.inkscape.org/) -->

<svg
   width="1595.7295"
   height="1611.6185"
   viewBox="0 0 1595.7295 1611.6185"
   version="1.1"
   id="svg1"
   xml:space="preserve"
   inkscape:version="1.3 (0e150ed6c4, 2023-07-21)"
   sodipodi:docname="kadminback.svg"
   xmlns:inkscape="http://www.inkscape.org/namespaces/inkscape"
   xmlns:sodipodi="http://sodipodi.sourceforge.net/DTD/sodipodi-0.dtd"
   xmlns="http://www.w3.org/2000/svg"
   xmlns:svg="http://www.w3.org/2000/svg"><sodipodi:namedview
     id="namedview1"
     pagecolor="#505050"
     bordercolor="#eeeeee"
     borderopacity="1"
     inkscape:showpageshadow="0"
     inkscape:pageopacity="0"
     inkscape:pagecheckerboard="0"
     inkscape:deskcolor="#505050"
     inkscape:document-units="px"
     inkscape:zoom="0.40855058"
     inkscape:cx="353.68937"
     inkscape:cy="514.01224"
     inkscape:window-width="1600"
     inkscape:window-height="847"
     inkscape:window-x="-8"
     inkscape:window-y="-8"
     inkscape:window-maximized="1"
     inkscape:current-layer="g13" /><defs
     id="defs1"><rect
       x="4000.6335"
       y="1825.2874"
       width="563.83569"
       height="265.17307"
       id="rect14" /><filter
       style="color-interpolation-filters:sRGB"
       inkscape:label="Drop Shadow"
       id="filter7"
       x="-0.0012037052"
       y="-0.0018538333"
       width="1.0025617"
       height="1.0039453"><feFlood
         result="flood"
         in="SourceGraphic"
         flood-opacity="0.200000"
         flood-color="rgb(0,0,0)"
         id="feFlood6" /><feGaussianBlur
         result="blur"
         in="SourceGraphic"
         stdDeviation="0.500000"
         id="feGaussianBlur6" /><feOffset
         result="offset"
         in="blur"
         dx="0.153846"
         dy="0.153846"
         id="feOffset6" /><feComposite
         result="comp1"
         operator="in"
         in="flood"
         in2="offset"
         id="feComposite6" /><feComposite
         result="comp2"
         operator="over"
         in="SourceGraphic"
         in2="comp1"
         id="feComposite7" /></filter><filter
       style="color-interpolation-filters:sRGB"
       inkscape:label="Drop Shadow"
       id="filter42"
       x="-0.016508995"
       y="-0.021442179"
       width="1.0366432"
       height="1.0529307"><feComposite
         result="comp1"
         operator="in"
         in="flood"
         in2="offset"
         id="feComposite41" /><feComposite
         result="comp2"
         operator="over"
         in="SourceGraphic"
         in2="comp1"
         id="feComposite42" /></filter><filter
       style="color-interpolation-filters:sRGB"
       inkscape:label="Drop Shadow"
       id="filter156-7-6"
       x="-0.03306299"
       y="-0.030675532"
       width="1.0703648"
       height="1.0652838"><feFlood
         result="flood"
         in="SourceGraphic"
         flood-opacity="0.200000"
         flood-color="rgb(0,0,0)"
         id="feFlood155-0-9" /><feGaussianBlur
         result="blur"
         in="SourceGraphic"
         stdDeviation="0.500000"
         id="feGaussianBlur155-0-9" /><feOffset
         result="offset"
         in="blur"
         dx="0.153846"
         dy="0.153846"
         id="feOffset155-1-4" /><feComposite
         result="comp1"
         operator="in"
         in="flood"
         in2="offset"
         id="feComposite155-3-3" /><feComposite
         result="comp2"
         operator="over"
         in="SourceGraphic"
         in2="comp1"
         id="feComposite156-0-2" /></filter><rect
       x="45.42247"
       y="1079.3459"
       width="142.5636"
       height="22.593359"
       id="rect1-8" /><filter
       style="color-interpolation-filters:sRGB"
       inkscape:label="Drop Shadow"
       id="filter42-2"
       x="0"
       y="0"
       width="1"
       height="1"><feComposite
         result="comp1"
         operator="in"
         in="flood"
         in2="offset"
         id="feComposite41-9" /><feComposite
         result="comp2"
         operator="over"
         in="SourceGraphic"
         in2="comp1"
         id="feComposite42-8" /></filter><filter
       style="color-interpolation-filters:sRGB"
       inkscape:label="Drop Shadow"
       id="filter42-2-0"
       x="0"
       y="0"
       width="1"
       height="1"><feComposite
         result="comp1"
         operator="in"
         in="flood"
         in2="offset"
         id="feComposite41-9-7" /><feComposite
         result="comp2"
         operator="over"
         in="SourceGraphic"
         in2="comp1"
         id="feComposite42-8-0" /></filter></defs><g
     inkscape:label="Layer 1"
     inkscape:groupmode="layer"
     id="layer1"
     transform="translate(-3169.584,-1047.0922)"><rect
       style="fill:#000000;fill-opacity:1;stroke-width:8.69291;stroke-linejoin:round;paint-order:markers stroke fill;filter:url(#filter42)"
       id="rect1"
       width="1221.9231"
       height="1215"
       x="3160.3848"
       y="1080"
       ry="140.00403"
       transform="matrix(1.2597552,0,0,1.2597552,-786.31442,-280.62396)"
       inkscape:export-filename="controlpanel\public\shareimg.svg"
       inkscape:export-xdpi="96"
       inkscape:export-ydpi="96" /><rect
       style="fill:#ffffff;fill-opacity:1;stroke-width:8.69291;stroke-linejoin:round;paint-order:markers stroke fill;filter:url(#filter42-2)"
       id="rect1-3"
       width="1221.9231"
       height="1215"
       x="3160.3848"
       y="1080"
       ry="140.00403"
       transform="matrix(0.47452614,0,0,0.47452614,1840.0331,1036.6204)"
       inkscape:export-filename="controlpanel\public\shareimg.svg"
       inkscape:export-xdpi="96"
       inkscape:export-ydpi="96" /><rect
       style="fill:#ffffff;fill-opacity:1;stroke-width:8.69291;stroke-linejoin:round;paint-order:markers stroke fill;filter:url(#filter42-2-0)"
       id="rect1-3-2"
       width="1221.9231"
       height="1215"
       x="3160.3848"
       y="1080"
       ry="140.00403"
       transform="matrix(0.47452614,0,0,0.47452614,2500.9483,1024.5244)"
       inkscape:export-filename="controlpanel\public\shareimg.svg"
       inkscape:export-xdpi="96"
       inkscape:export-ydpi="96" /><g
       id="g6"
       style="filter:url(#filter7)"
       transform="matrix(0.44122539,0,0,0.44122539,3391.3738,1634.2499)"
       inkscape:export-filename="kadminback.png"
       inkscape:export-xdpi="96"
       inkscape:export-ydpi="96"><path
         d="M 1038.4609,157.5003 H 41.539066 v 604.40567 c 0,0.37744 0.131239,0.71799 0.34375,0.96428 0.212512,0.24628 0.506357,0.39838 0.832031,0.39838 H 1037.2871 c 0.3257,0 0.6195,-0.1521 0.832,-0.39838 0.2125,-0.24629 0.3418,-0.58684 0.3418,-0.96428 z"
         style="fill:#f9f9f9;stroke-width:7.6982;stroke-linecap:round;stroke-linejoin:round"
         id="path2" /><path
         d="m 1038.4609,196.75253 v -78.50446 c 0,-0.63341 -0.1293,-1.20493 -0.3418,-1.61825 -0.2125,-0.41333 -0.5063,-0.66858 -0.832,-0.66858 H 42.714847 c -0.325674,0 -0.619519,0.25525 -0.832031,0.66858 -0.212511,0.41332 -0.34375,0.98484 -0.34375,1.61825 v 78.50446 z"
         style="fill:#1a1a1a;stroke-width:9.9727;stroke-linecap:round;stroke-linejoin:round"
         id="path3" /><rect
         style="fill:#2f4f4f;fill-opacity:1;stroke-width:5.74943;stroke-linecap:round;stroke-linejoin:round"
         id="rect3"
         width="161.11378"
         height="566.51611"
         x="41.539066"
         y="196.75253"
         ry="1.1757226" /><rect
         style="fill:#2f4f4f;fill-opacity:1;stroke-width:7.15087;stroke-linecap:round;stroke-linejoin:round"
         id="rect4"
         width="304.61536"
         height="125.17055"
         x="235.38463"
         y="220.98331"
         ry="28.002644" /><rect
         style="fill:#2f4f4f;fill-opacity:1;stroke-width:7.15087;stroke-linecap:round;stroke-linejoin:round"
         id="rect4-2"
         width="304.61536"
         height="125.17055"
         x="553.96155"
         y="220.98331"
         ry="28.002644" /><rect
         style="fill:#2f4f4f;fill-opacity:1;stroke-width:7.15087;stroke-linecap:round;stroke-linejoin:round"
         id="rect4-8"
         width="304.61536"
         height="125.17055"
         x="235.38464"
         y="370.38464"
         ry="28.002644" /><rect
         style="fill:#2f4f4f;fill-opacity:1;stroke-width:7.15087;stroke-linecap:round;stroke-linejoin:round"
         id="rect4-2-0"
         width="304.61536"
         height="125.17055"
         x="553.96155"
         y="370.38464"
         ry="28.002644" /><rect
         style="fill:#153d3d;fill-opacity:1;stroke-width:7.15087;stroke-linecap:round;stroke-linejoin:round"
         id="rect5"
         width="243.46255"
         height="70.834633"
         x="234.22974"
         y="519.78601"
         ry="35.417316" /><rect
         style="fill:#153d3d;fill-opacity:1;stroke-width:3.20379;stroke-linecap:round;stroke-linejoin:round"
         id="rect5-2"
         width="109.07814"
         height="31.735928"
         x="67.556885"
         y="226.26434"
         ry="15.867964" /><rect
         style="fill:#153d3d;fill-opacity:1;stroke-width:3.20379;stroke-linecap:round;stroke-linejoin:round"
         id="rect5-2-2"
         width="109.07814"
         height="31.735928"
         x="69"
         y="283"
         ry="15.867964" /><rect
         style="fill:#153d3d;fill-opacity:1;stroke-width:3.20379;stroke-linecap:round;stroke-linejoin:round"
         id="rect5-2-3"
         width="109.07814"
         height="31.735928"
         x="69"
         y="340"
         ry="15.867964" /><rect
         style="fill:#153d3d;fill-opacity:1;stroke-width:3.20379;stroke-linecap:round;stroke-linejoin:round"
         id="rect5-2-0"
         width="109.07814"
         height="31.735928"
         x="69"
         y="393.80768"
         ry="15.867964" /><rect
         style="fill:#1a1a1a;fill-opacity:1;stroke-width:7.15087;stroke-linecap:round;stroke-linejoin:round"
         id="rect6"
         width="752.30872"
         height="88.269234"
         x="234.22974"
         y="633.46155"
         ry="35.417316" /></g><g
       id="g137-0-4"
       transform="matrix(2.2958982,0,0,2.2958982,3961.0577,1155.0239)"
       style="filter:url(#filter156-7-6)"
       inkscape:export-filename="kadminemail.png"
       inkscape:export-xdpi="96"
       inkscape:export-ydpi="96"><circle
         style="fill:#006380;fill-opacity:1;stroke:none;stroke-width:3.43977;stroke-linecap:round;stroke-linejoin:round;stroke-dasharray:none;stroke-opacity:1"
         id="path136-5-4-2"
         cx="143.17169"
         cy="250.24995"
         r="17.88203" /><path
         style="fill:none;fill-opacity:1;stroke:#ffffff;stroke-width:0.665;stroke-linecap:butt;stroke-linejoin:miter;stroke-dasharray:none;stroke-opacity:1"
         d="m 143.3895,254.51006 c 2.85523,-0.46161 5.17848,0.34023 7.40643,1.36839 l -6.30028,1.60637 5.31835,2.58248 c -1.61711,0.97858 -4.34308,2.01091 -6.11877,1.40369"
         id="path9-4-6-5"
         sodipodi:nodetypes="ccccc" /><path
         d="m 131.9599,245.53333 c -0.0273,0 -0.0534,0.005 -0.077,0.0155 -0.0236,0.01 -0.0447,0.024 -0.0625,0.0419 -0.0178,0.0178 -0.0324,0.0394 -0.0424,0.0631 -0.01,0.0236 -0.0155,0.0491 -0.0155,0.0765 v 2.62465 c 0,0.0273 0.006,0.0534 0.0155,0.077 v 5.1e-4 c -0.006,0.0399 -0.0111,0.0799 -0.0155,0.11989 -5e-5,0.28896 0.0378,0.57739 0.11317,0.86196 0.0754,0.28452 0.18795,0.56413 0.33641,0.83561 0.14848,0.27145 0.33229,0.53377 0.54932,0.78393 0.21695,0.25015 0.46629,0.48721 0.74518,0.70849 0.27909,0.22137 0.58671,0.42611 0.91932,0.61185 0.33248,0.18567 0.68868,0.35167 1.06454,0.49609 0.37581,0.14454 0.76989,0.26697 1.1777,0.36587 0.40782,0.0988 0.82783,0.17363 1.25522,0.22376 0.42737,0.0502 0.86053,0.0754 1.2945,0.0755 0.43414,0 0.86747,-0.0252 1.29501,-0.0755 0.42738,-0.0501 0.84739,-0.125 1.25521,-0.22376 0.40781,-0.0989 0.80189,-0.22133 1.1777,-0.36587 0.37586,-0.14442 0.73206,-0.31042 1.06454,-0.49609 0.33243,-0.18576 0.63988,-0.39049 0.91881,-0.61185 0.27906,-0.22126 0.52858,-0.45833 0.74569,-0.70849 0.21685,-0.25018 0.40048,-0.51249 0.5488,-0.78393 0.14846,-0.27148 0.26103,-0.55109 0.33641,-0.83561 0.0754,-0.28457 0.11322,-0.573 0.11318,-0.86196 -1e-5,0.28897 0.0377,0.57739 0.11265,0.86196 0.0751,0.28453 0.18712,0.56413 0.33486,0.83561 0.14765,0.27146 0.33042,0.53376 0.54622,0.78393 0.21575,0.25015 0.4637,0.48721 0.74104,0.70849 0.27736,0.22136 0.58307,0.42609 0.91364,0.61185 0.33071,0.18568 0.685,0.35168 1.05885,0.49609 0.37368,0.14454 0.7655,0.26696 1.17099,0.36587 0.40564,0.0988 0.8234,0.17365 1.2485,0.22376 0.42499,0.0502 0.85571,0.0754 1.28726,0.0755 0.43155,-2e-5 0.86228,-0.0253 1.28726,-0.0755 0.42511,-0.0501 0.84286,-0.12499 1.24851,-0.22376 0.40549,-0.0989 0.79731,-0.22133 1.17098,-0.36587 0.37367,-0.14443 0.7278,-0.31043 1.05834,-0.49609 0.33075,-0.18575 0.63663,-0.39047 0.91415,-0.61185 0.27734,-0.22128 0.5253,-0.45834 0.74104,-0.70849 0.21581,-0.25017 0.39858,-0.51247 0.54622,-0.78393 0.14757,-0.27149 0.25944,-0.55109 0.33435,-0.83561 0.075,-0.28457 0.11266,-0.57299 0.11265,-0.86196 -4.4e-4,-0.0131 -9.5e-4,-0.0262 -0.002,-0.0393 0.009,-0.006 0.0196,-0.0108 0.0274,-0.0186 0.0178,-0.0178 0.0324,-0.0389 0.0424,-0.0625 0.01,-0.0236 0.0155,-0.0497 0.0155,-0.077 v -2.62464 c 0,-0.0273 -0.006,-0.0529 -0.0155,-0.0765 -0.01,-0.0236 -0.0246,-0.0452 -0.0424,-0.063 -0.0178,-0.0178 -0.0389,-0.0319 -0.0625,-0.0419 -0.0236,-0.01 -0.0497,-0.0155 -0.077,-0.0155 h -1.41801 -11.73985 -3.09593 -11.80651 z"
         style="fill:#fefefe;fill-opacity:1;stroke-width:7.21172;stroke-linecap:round;stroke-linejoin:round"
         id="path135-5-5-0" /><path
         style="fill:#fefefe;fill-opacity:1;stroke:none;stroke-width:0.264583px;stroke-linecap:butt;stroke-linejoin:miter;stroke-opacity:1"
         d="m 144.76942,236.79086 c 0,0 4.50402,-11.48257 8.25221,-6.54447 3.7482,4.9381 -5.46042,7.4369 -5.46042,7.4369 0,0 3.14011,-0.77344 3.08062,1.07092 -0.0595,1.84434 -3.62921,1.24939 -3.62921,1.24939 -0.68307,-0.003 -2.54034,-0.76544 -2.2432,-3.21274"
         id="path137-5-8"
         sodipodi:nodetypes="cscscc" /></g><text
       xml:space="preserve"
       transform="matrix(3.030333,0,0,3.030333,3978.4194,-1485.2608)"
       id="text1"
       style="font-weight:600;font-size:14.6667px;font-family:Rubik;-inkscape-font-specification:'Rubik Semi-Bold';text-align:center;letter-spacing:0px;word-spacing:7.09px;white-space:pre;shape-inside:url(#rect1-8);fill:#2f4f4f;fill-opacity:1;stroke-width:8.69291;stroke-linejoin:round;paint-order:markers stroke fill"
       x="-56.495087"
       y="0"><tspan
         x="45.421875"
         y="1092.7515"
         id="tspan3"><tspan
           style="text-align:start"
           id="tspan2">KADMIN.ONLINE</tspan></tspan></text><text
       xml:space="preserve"
       id="text5"
       style="font-style:normal;font-variant:normal;font-weight:normal;font-stretch:normal;font-size:53.3333px;line-height:0;font-family:Rubik;-inkscape-font-specification:Rubik;text-align:center;letter-spacing:-4.15px;word-spacing:4px;white-space:pre;shape-inside:url(#rect14);opacity:1;fill:#006380;fill-opacity:1;stroke-width:8.69291;stroke-linejoin:round;paint-order:markers stroke fill"
       transform="matrix(1.1044808,0,0,1.1044808,-440.03345,-123.9143)"><tspan
         x="4055.3976"
         y="1867.3687"
         id="tspan5"><tspan
           dx="0 0 0 0 0 0 -3.9999938 3.9999928 0 0 0 0 0 0 0 0 0 -3.99999"
           style="font-weight:500;-inkscape-font-specification:'Rubik Medium'"
           id="tspan4">Server Management </tspan></tspan><tspan
         x="4159.2534"
         y="1920.7019"
         id="tspan8"><tspan
           dx="0 0 0 0 -4.0000052 4.0000005"
           style="font-weight:500;-inkscape-font-specification:'Rubik Medium'"
           id="tspan6">made Easy</tspan><tspan
           dx="-3.9999957"
           style="line-height:1"
           id="tspan7"> </tspan></tspan></text></g></svg>
